<?xml version="1.0" encoding="UTF-8" standalone="no"?>
<!-- Created with Inkscape (http://www.inkscape.org/) -->

<svg
   xmlns:dc="http://purl.org/dc/elements/1.1/"
   xmlns:cc="http://creativecommons.org/ns#"
   xmlns:rdf="http://www.w3.org/1999/02/22-rdf-syntax-ns#"
   xmlns:svg="http://www.w3.org/2000/svg"
   xmlns="http://www.w3.org/2000/svg"
   xmlns:sodipodi="http://sodipodi.sourceforge.net/DTD/sodipodi-0.dtd"
   xmlns:inkscape="http://www.inkscape.org/namespaces/inkscape"
   width="196"
   height="196"
   viewBox="0 0 51.858332 51.858332"
   version="1.1"
   id="svg8"
   inkscape:version="0.92.3 (2405546, 2018-03-11)"
   sodipodi:docname="four-leaf-clover.svg">
  <defs
     id="defs2" />
  <sodipodi:namedview
     id="base"
     pagecolor="#ffffff"
     bordercolor="#666666"
     borderopacity="1.0"
     inkscape:pageopacity="0.0"
     inkscape:pageshadow="2"
     inkscape:zoom="1"
     inkscape:cx="79.368514"
     inkscape:cy="103.13779"
     inkscape:document-units="px"
     inkscape:current-layer="g929"
     showgrid="true"
     inkscape:snap-to-guides="true"
     inkscape:snap-grids="true"
     inkscape:window-width="1680"
     inkscape:window-height="974"
     inkscape:window-x="1920"
     inkscape:window-y="0"
     inkscape:window-maximized="1"
     units="px">
    <inkscape:grid
       type="xygrid"
       id="grid3713"
       empspacing="4"
       enabled="true" />
  </sodipodi:namedview>
  <metadata
     id="metadata5">
    <rdf:RDF>
      <cc:Work
         rdf:about="">
        <dc:format>image/svg+xml</dc:format>
        <dc:type
           rdf:resource="http://purl.org/dc/dcmitype/StillImage" />
        <dc:title></dc:title>
      </cc:Work>
    </rdf:RDF>
  </metadata>
  <g
     inkscape:label="Ebene 1"
     inkscape:groupmode="layer"
     id="layer1"
     transform="translate(0,-245.14167)">
    <g
       id="g924"
       transform="translate(-27.628561,-65.509653)">
      <g
         id="g929"
         transform="matrix(0.33886462,0,0,0.33886462,17.175344,287.62008)">
        <g
           id="g4640"
           style="stroke:none;stroke-opacity:1">
          <path
             id="path3715"
             transform="scale(0.26458333)"
             d="m 343.24023,259.83008 c -50.09677,-1.8e-4 -90.70845,40.6115 -90.70898,90.70898 0.29197,18.97817 8.32183,39.45953 20.54687,59.77539 -19.59381,-10.58589 -40.51332,-17.08999 -62.82812,-17.39257 -50.09743,5.2e-4 -90.70917,40.61225 -90.70898,90.70898 0.0151,23.29595 8.99126,45.69333 25.07031,62.55078 -16.05486,16.83201 -25.02983,39.18838 -25.07031,62.44922 -1.9e-4,50.09677 40.61151,90.70849 90.70898,90.70898 18.97816,-0.29178 39.45952,-8.3218 59.77539,-20.54687 -10.58586,19.59383 -17.09,40.51334 -17.39258,62.82812 5.3e-4,50.09745 40.61222,90.70918 90.70899,90.70899 23.29595,-0.0151 45.69337,-8.99126 62.55078,-25.07031 16.83205,16.05486 39.18838,25.02983 62.44922,25.07031 50.09673,1.9e-4 90.70845,-40.6115 90.70898,-90.70899 -0.29178,-18.97818 -8.32184,-39.45952 -20.54687,-59.77539 19.59382,10.58586 40.51334,17.08999 62.82812,17.39258 50.09745,-5.3e-4 90.70917,-40.61225 90.70899,-90.70898 -0.0151,-23.29595 -8.99126,-45.69334 -25.07032,-62.55078 16.05487,-16.83198 25.02984,-39.18839 25.07032,-62.44922 1.8e-4,-50.09677 -40.6115,-90.7085 -90.70899,-90.70899 -18.97814,0.29178 -39.45952,8.32184 -59.77539,20.54688 10.58585,-19.59383 17.08999,-40.51332 17.39258,-62.82813 -5.3e-4,-50.09747 -40.61225,-90.70916 -90.70899,-90.70898 -23.29595,0.0144 -45.69333,8.99129 -62.55078,25.07031 -16.83201,-16.05484 -39.18842,-25.02984 -62.44922,-25.07031 z M 236.23047,445.79883 c 54.55296,0.74199 96.34515,58.38077 127.68945,100.3164 0.45143,0.6912 -73.13649,99.54112 -127.68945,100.38282 -32.71397,-3.4e-4 -59.23453,-26.5995 -59.23438,-59.41211 0.0264,-15.23547 5.88718,-29.87957 16.3711,-40.9043 -10.49968,-11.04132 -16.35976,-25.71031 -16.3711,-40.96875 -1.5e-4,-32.81257 26.52041,-59.41368 59.23438,-59.41406 z m 169.5957,142.84375 c 0.68791,-0.45063 99.05883,73.0042 99.89649,127.45703 -3.4e-4,32.65395 -26.47147,59.12511 -59.125,59.125 -15.16162,-0.0265 -29.73387,-5.87708 -40.70508,-16.3418 -10.98781,10.48052 -25.58701,16.33046 -40.77149,16.3418 -32.65349,1.1e-4 -59.12466,-26.47109 -59.125,-59.125 0.73836,-54.45283 58.09782,-96.17022 99.83008,-127.45703 z"
             style="fill:#558b2f;fill-opacity:1;stroke:none;stroke-width:1.03079486;stroke-opacity:1"
             inkscape:connector-curvature="0" />
          <path
             sodipodi:nodetypes="ccccccc"
             inkscape:connector-curvature="0"
             id="path3715-6-7-5-3-6"
             d="m 167.80119,133.66773 c 4e-5,-8.68167 -7.01664,-15.7196 -15.67221,-15.71969 -14.43381,0.2227 -33.90401,26.37671 -33.78457,26.55959 8.29318,11.09547 19.35076,26.3457 33.78457,26.54202 8.65557,-1e-4 15.67225,-7.03803 15.67221,-15.71969 -0.003,-4.03713 -1.55347,-7.91856 -4.33151,-10.83991 2.77387,-2.91696 4.32452,-6.79127 4.33151,-10.82232 z"
             style="fill:#33691e;fill-opacity:1;stroke:none;stroke-width:0.17836472;stroke-opacity:1" />
          <path
             sodipodi:nodetypes="ccccccc"
             inkscape:connector-curvature="0"
             id="path3715-6-7-5-3-6-5"
             d="m 96.51634,83.848752 c -8.68166,-5e-5 -15.71959,7.01663 -15.71968,15.672163 0.2227,14.433775 26.3767,33.903975 26.55958,33.784535 11.09548,-8.29319 26.34571,-19.35076 26.54203,-33.784535 -1e-4,-8.655533 -7.03803,-15.672213 -15.71969,-15.672163 -4.03714,0.003 -7.91856,1.55347 -10.83991,4.33151 -2.91696,-2.77387 -6.79127,-4.32453 -10.82233,-4.33151 z"
             style="fill:#ccff90;fill-opacity:1;stroke:none;stroke-width:0.17836472;stroke-opacity:1" />
        </g>
      </g>
    </g>
  </g>
</svg>
